<svg width="213" height="180" viewBox="0 0 213 180" fill="none" xmlns="http://www.w3.org/2000/svg">
<path d="M97 59.9838L139.577 0L125.293 41.9211L213 43.3459L116.551 48.1622L123.502 32.4L107.861 54.7297H134.798L120.895 75.7459H176.071L109.599 81L123.502 59.9838H97Z" fill="url(#paint0_linear_246_71)"/>
<path d="M116 64.7568L73.2632 124L87.7073 81.8571L44.0451 76.4324H96.3759L89.3985 92L105.098 69.9459H78.0602L92.015 49.1892L0 44H103.353L89.3985 64.7568H116Z" fill="url(#paint1_linear_246_71)"/>
<path d="M97 59.9838L139.577 0L125.293 41.9211L213 43.3459L116.551 48.1622L123.502 32.4L107.861 54.7297H134.798L120.895 75.7459H176.071L109.599 81L123.502 59.9838H97Z" fill="url(#paint2_linear_246_71)"/>
<path d="M116 64.7568L73.2632 124L87.7073 81.8571L44.0451 76.4324H96.3759L89.3985 92L105.098 69.9459H78.0602L92.015 49.1892L0 44H103.353L89.3985 64.7568H116Z" fill="url(#paint3_linear_246_71)"/>
<path d="M41.7539 139.188H43.3711H55.3242C55.9805 139.211 56.5195 139.457 56.9414 139.926C57.3867 140.395 57.6094 140.957 57.6094 141.613C57.4922 143.02 56.7305 143.781 55.3242 143.898H42.9492C42.0586 143.945 41.3203 144.285 40.7344 144.918C40.1484 145.551 39.7148 146.277 39.4336 147.098C39.1758 147.895 39.0469 148.715 39.0469 149.559C39.0469 150.402 39.1758 151.234 39.4336 152.055C39.7148 152.852 40.1484 153.566 40.7344 154.199C41.3203 154.832 42.0586 155.172 42.9492 155.219H55.3242C55.9805 155.242 56.5195 155.488 56.9414 155.957C57.3867 156.426 57.6094 156.988 57.6094 157.645C57.5859 158.277 57.3516 158.816 56.9062 159.262C56.4844 159.684 55.957 159.906 55.3242 159.93H42.4219H41.7539C40.1133 159.836 38.7539 159.215 37.6758 158.066C36.6211 156.895 35.8594 155.57 35.3906 154.094C34.9453 152.617 34.7227 151.105 34.7227 149.559C34.7227 148.012 34.957 146.5 35.4258 145.023C35.8945 143.547 36.6562 142.234 37.7109 141.086C38.7656 139.914 40.1133 139.281 41.7539 139.188ZM57.5391 149.418C57.5391 150.074 57.3047 150.625 56.8359 151.07C56.3906 151.539 55.8398 151.773 55.1836 151.773H44.5664C43.9102 151.773 43.3477 151.551 42.8789 151.105C42.4336 150.637 42.2109 150.074 42.2109 149.418C42.2109 148.762 42.4336 148.199 42.8789 147.73C43.3477 147.285 43.9102 147.062 44.5664 147.062H55.1836C55.8398 147.062 56.3906 147.297 56.8359 147.766C57.3047 148.211 57.5391 148.762 57.5391 149.418ZM77.4206 143.898C76.53 143.945 75.78 144.285 75.1706 144.918C74.5847 145.551 74.1628 146.277 73.905 147.098C73.6472 147.895 73.5183 148.715 73.5183 149.559C73.5183 150.402 73.6355 151.234 73.8698 152.055C74.1277 152.875 74.5612 153.602 75.1706 154.234C75.78 154.844 76.53 155.172 77.4206 155.219H89.0222C90.4987 155.359 91.3073 156.168 91.448 157.645C91.4245 158.301 91.1784 158.852 90.7097 159.297C90.2409 159.719 89.6784 159.93 89.0222 159.93H77.8073H76.1902C74.5495 159.836 73.2019 159.215 72.1472 158.066C71.0925 156.895 70.3308 155.57 69.862 154.094C69.4167 152.617 69.1941 151.105 69.1941 149.559C69.1941 148.41 69.323 147.273 69.5808 146.148C69.8386 145.023 70.237 143.957 70.7761 142.949C71.3386 141.918 72.0769 141.039 72.9909 140.312C73.9284 139.586 74.9948 139.211 76.1902 139.188H76.8581H89.0222C90.4987 139.328 91.3073 140.137 91.448 141.613C91.448 142.27 91.2019 142.82 90.7097 143.266C90.2409 143.688 89.6784 143.898 89.0222 143.898H77.4206ZM109.501 139.188H111.119H123.072C123.728 139.211 124.267 139.457 124.689 139.926C125.134 140.395 125.357 140.957 125.357 141.613C125.24 143.02 124.478 143.781 123.072 143.898H110.697C109.806 143.945 109.068 144.285 108.482 144.918C107.896 145.551 107.462 146.277 107.181 147.098C106.923 147.895 106.794 148.715 106.794 149.559C106.794 150.402 106.923 151.234 107.181 152.055C107.462 152.852 107.896 153.566 108.482 154.199C109.068 154.832 109.806 155.172 110.697 155.219H123.072C123.728 155.242 124.267 155.488 124.689 155.957C125.134 156.426 125.357 156.988 125.357 157.645C125.333 158.277 125.099 158.816 124.654 159.262C124.232 159.684 123.705 159.906 123.072 159.93H110.169H109.501C107.861 159.836 106.501 159.215 105.423 158.066C104.369 156.895 103.607 155.57 103.138 154.094C102.693 152.617 102.47 151.105 102.47 149.559C102.47 148.012 102.705 146.5 103.173 145.023C103.642 143.547 104.404 142.234 105.458 141.086C106.513 139.914 107.861 139.281 109.501 139.188ZM125.287 149.418C125.287 150.074 125.052 150.625 124.583 151.07C124.138 151.539 123.587 151.773 122.931 151.773H112.314C111.658 151.773 111.095 151.551 110.626 151.105C110.181 150.637 109.958 150.074 109.958 149.418C109.958 148.762 110.181 148.199 110.626 147.73C111.095 147.285 111.658 147.062 112.314 147.062H122.931C123.587 147.062 124.138 147.297 124.583 147.766C125.052 148.211 125.287 148.762 125.287 149.418ZM159.899 141.543C159.899 142.199 159.664 142.75 159.195 143.195C158.75 143.664 158.199 143.898 157.543 143.898H143.481C143.035 143.922 142.66 144.027 142.356 144.215C142.074 144.379 141.863 144.578 141.723 144.812C141.582 145.023 141.512 145.246 141.512 145.48C141.512 145.715 141.582 145.949 141.723 146.184C141.863 146.395 142.074 146.594 142.356 146.781C142.66 146.945 143.035 147.039 143.481 147.062H153.465C155.106 147.109 156.453 147.496 157.508 148.223C158.586 148.926 159.348 149.746 159.793 150.684C160.262 151.598 160.496 152.535 160.496 153.496C160.496 154.434 160.262 155.371 159.793 156.309C159.324 157.223 158.563 158.043 157.508 158.77C156.453 159.473 155.106 159.824 153.465 159.824H153.254C153.113 159.848 152.973 159.859 152.832 159.859H139.543C138.887 159.859 138.324 159.637 137.856 159.191C137.41 158.723 137.188 158.16 137.188 157.504C137.188 156.848 137.422 156.297 137.891 155.852C138.336 155.383 138.887 155.148 139.543 155.148H153.676C154.121 155.172 154.485 155.09 154.766 154.902C155.07 154.715 155.293 154.504 155.434 154.27C155.574 154.012 155.645 153.754 155.645 153.496C155.645 153.332 155.574 153.109 155.434 152.828C155.293 152.523 155.07 152.277 154.766 152.09C154.485 151.902 154.121 151.797 153.676 151.773H143.692C142.051 151.727 140.692 151.352 139.613 150.648C138.559 149.945 137.797 149.148 137.328 148.258C136.883 147.344 136.66 146.418 136.66 145.48C136.66 144.566 136.895 143.664 137.363 142.773C137.832 141.859 138.594 141.051 139.649 140.348C140.703 139.645 142.051 139.27 143.692 139.223H143.902C144.043 139.199 144.184 139.188 144.324 139.188H157.543C158.199 139.188 158.75 139.422 159.195 139.891C159.664 140.336 159.899 140.887 159.899 141.543ZM180.624 154.48C180.624 153.824 180.847 153.273 181.292 152.828C181.761 152.359 182.323 152.125 182.979 152.125H188.358L187.444 149.523C187.069 148.562 186.694 147.66 186.319 146.816C185.968 145.949 185.557 145.164 185.089 144.461C184.667 143.758 184.186 143.383 183.647 143.336C183.085 143.383 182.581 143.758 182.136 144.461C181.69 145.164 181.28 145.949 180.905 146.816C180.554 147.66 180.19 148.562 179.815 149.523L176.475 158.664C176.241 159.156 175.936 159.566 175.561 159.895C175.21 160.199 174.671 160.352 173.944 160.352C173.265 160.352 172.702 160.117 172.257 159.648C171.835 159.18 171.647 158.617 171.694 157.961C171.718 157.656 171.788 157.375 171.905 157.117L175.772 147.133C176.85 144.508 177.929 142.387 179.007 140.77C180.061 139.176 181.608 138.367 183.647 138.344C185.663 138.367 187.198 139.176 188.253 140.77C189.331 142.34 190.409 144.461 191.487 147.133L195.354 157.117C195.472 157.375 195.542 157.656 195.565 157.961C195.612 158.617 195.413 159.18 194.968 159.648C194.546 160.117 193.995 160.352 193.315 160.352C192.542 160.352 191.968 160.199 191.593 159.895C191.241 159.566 190.948 159.156 190.714 158.664L190.046 156.836H182.979C182.323 156.836 181.772 156.602 181.327 156.133C180.858 155.688 180.624 155.137 180.624 154.48Z" fill="url(#paint4_linear_246_71)"/>
<defs>
<linearGradient id="paint0_linear_246_71" x1="155" y1="0" x2="155" y2="81" gradientUnits="userSpaceOnUse">
<stop offset="0.276" stop-color="white"/>
<stop offset="1" stop-color="white" stop-opacity="0.12"/>
</linearGradient>
<linearGradient id="paint1_linear_246_71" x1="58" y1="124" x2="58" y2="44" gradientUnits="userSpaceOnUse">
<stop offset="0.276" stop-color="white"/>
<stop offset="1" stop-color="white" stop-opacity="0.12"/>
</linearGradient>
<linearGradient id="paint2_linear_246_71" x1="155" y1="0" x2="155" y2="81" gradientUnits="userSpaceOnUse">
<stop offset="0.276" stop-color="white"/>
<stop offset="1" stop-color="white" stop-opacity="0.12"/>
</linearGradient>
<linearGradient id="paint3_linear_246_71" x1="58" y1="124" x2="58" y2="44" gradientUnits="userSpaceOnUse">
<stop offset="0.276" stop-color="white"/>
<stop offset="1" stop-color="white" stop-opacity="0.12"/>
</linearGradient>
<linearGradient id="paint4_linear_246_71" x1="116.5" y1="129" x2="116.5" y2="180" gradientUnits="userSpaceOnUse">
<stop stop-color="white"/>
<stop offset="1" stop-color="white" stop-opacity="0"/>
</linearGradient>
</defs>
</svg>
